# xmcd
#
# Track frame offsets: 
#        150
#        15957
#        39245
#        61038
#        95305
#        111373
#        129040
#        144143
#        161916
#
# Disc length: 2557 seconds
#
# Revision: 3
# Processed by: cddbd v1.5.2PL0 Copyright (c) Steve Scherf et al.
# Submitted via: ExactAudioCopy v0.99pb4
#
DISCID=5f09fb09
DTITLE=Billy Joel - The Stranger
DYEAR=1977
DGENRE=Pop/Rock
TTITLE0=Movin' Out (Anthony's Song)
TTITLE1=The Stranger
TTITLE2=Just the Way You Are
TTITLE3=Scenes from an Italian Restaurant
TTITLE4=Vienna
TTITLE5=Only the Good Die Young
TTITLE6=She's Always a Woman
TTITLE7=Get It Right the First Time
TTITLE8=Everybody Has a Dream
EXTD=
EXTT0=
EXTT1=
EXTT2=
EXTT3=
EXTT4=
EXTT5=
EXTT6=
EXTT7=
EXTT8=
PLAYORDER=
